# xmcd CD database file
#
# Track frame offsets:
#	150
#	11368
#	25895
#	40070
#	49444
#	61707
#	76782
#	89857
#
# Disc length: 1367 seconds
#
# Revision: 0
# Processed by: cddbd v1.5.2PL0 Copyright (c) Steve Scherf et al.
# Submitted via: CDex 1.70beta2
#
DISCID=5a055508
DTITLE=Dinah Shore - DAISO Female Singers Collection 8
DYEAR=2005
DGENRE=Jazz
TTITLE0=Daisy Bell (On A Bicycle Built for Two
TTITLE1=Blues In The Night
TTITLE2=Chloe
TTITLE3=Buttoms And Bows
TTITLE4=The Nearness Of You
TTITLE5=Tea For Two
TTITLE6=Body 6 Soul
TTITLE7=Sweet Violets
EXTD=YEAR: 2005
EXTT0=
EXTT1=
EXTT2=
EXTT3=
EXTT4=
EXTT5=
EXTT6=
EXTT7=
PLAYORDER=
